Coordinates
version=1
nRows=34
nColumns=19
inDegrees=yes

Units are S.I. units (second, meters, Newtons, ...)
If the header above contains a line with 'inDegrees', this indicates whether rotational values are in degrees (yes) or radians (no).

endheader
time	pelvis_tilt	pelvis_list	pelvis_rotation	pelvis_tx	pelvis_ty	pelvis_tz	hip_flexion_r	hip_adduction_r	hip_rotation_r	knee_angle_r	knee_angle_r_beta	ankle_angle_r	hip_flexion_l	hip_adduction_l	hip_rotation_l	knee_angle_l	knee_angle_l_beta	ankle_angle_l
     16.86000000	      5.31086893	      5.31875349	      2.33577330	      1.98628124	      0.87428870	      0.99678638	    -24.58737644	     -7.34756346	    -15.47323961	     53.83070616	      0.93952306	    -16.18437509	     22.27511658	      8.44948595	      1.83071535	     19.28326718	      0.33655650	     -8.41530706
     16.86666667	      5.87959125	      5.79106980	      2.51994036	      1.98570891	      0.87204353	      0.99556893	    -23.41995697	     -8.13022647	    -14.82044663	     58.69638520	      1.02444518	    -15.72552320	     21.51029645	      8.99004241	      0.28257749	     20.54202107	      0.35852590	     -8.09919974
     16.87333333	      6.47702669	      6.19547334	      2.90602743	      1.98499117	      0.86930267	      0.99432904	    -22.27445291	     -8.75627503	    -14.45133156	     63.44448081	      1.10731508	    -15.33800111	     20.81642874	      9.46627200	     -1.11052756	     22.42618647	      0.39141079	     -7.29242030
     16.88000000	      6.75328256	      6.45179963	      3.38973518	      1.98416370	      0.86583925	      0.99313100	    -20.66353016	     -9.19235562	    -14.07250267	     68.15202084	      1.18947716	    -15.00724787	     20.50522761	      9.77465987	     -2.29929425	     24.75052171	      0.43197810	     -6.03682624
     16.88666667	      7.17497792	      6.74444814	      3.98707929	      1.98323825	      0.86210838	      0.99192799	    -19.23149233	     -9.66472902	    -13.96712687	     72.65803295	      1.26812190	    -14.72389771	     19.94831942	     10.13089157	     -3.14058859	     27.24373591	      0.47549289	     -4.33493895
     16.89333333	      7.51200678	      7.00046612	      4.68718457	      1.98216650	      0.85795403	      0.99070595	    -17.67049166	    -10.12962962	    -14.01305889	     77.01272900	      1.34412569	    -14.40698264	     19.39555878	     10.48592725	     -3.57780818	     29.83790870	      0.52076975	     -2.21560509
     16.90000000	      8.19818891	      7.44117733	      5.43490798	      1.98092139	      0.85394387	      0.98948803	    -16.55264323	    -10.85404306	    -14.34205877	     81.09754141	      1.41541911	    -14.03219690	     18.25055423	     11.05918329	     -3.61082315	     32.25152714	      0.56289534	      0.23397075
     16.90666667	      7.90692953	      7.49670107	      6.28990288	      1.97944619	      0.84887832	      0.98818197	    -14.09926809	    -11.24873946	    -14.40344065	     85.19413938	      1.48691824	    -13.58808340	     18.25182386	     11.34914311	     -3.26954171	     34.92511683	      0.60955828	      2.99168738
     16.91333333	      8.30251561	      7.91174903	      7.09746257	      1.97776540	      0.84454973	      0.98697152	    -12.50076274	    -12.07712777	    -14.69367006	     88.92614540	      1.55205403	    -13.01132642	     17.22264654	     11.97431345	     -2.72136976	     37.19146773	      0.64911357	      5.80746038
     16.92000000	      7.91086712	      8.02321830	      7.88930479	      1.97584317	      0.83975071	      0.98575108	     -9.74847674	    -12.74804937	    -14.68756843	     92.56757029	      1.61560888	    -12.51340311	     17.03128533	     12.39826904	     -1.93208661	     39.41555112	      0.68793114	      8.73032033
     16.92666667	      7.79948567	      8.32142667	      8.54751435	      1.97372931	      0.83558414	      0.98474542	     -7.23555932	    -13.64777488	    -14.57324329	     95.89320954	      1.67365224	    -11.91302086	     16.34250820	     12.93939115	     -1.14805200	     41.31128383	      0.72101792	     11.49870241
     16.93333333	      8.33467590	      8.69209860	      8.99345945	      1.97148724	      0.83267393	      0.98411094	     -5.35644651	    -14.55684877	    -14.33333360	     98.72129080	      1.72301157	    -11.40269344	     14.72030158	     13.38387384	     -0.33690982	     42.79363720	      0.74688987	     14.14011892
     16.94000000	      7.42409648	      8.83200194	      9.37824384	      1.96907492	      0.82880406	      0.98347614	     -1.44053533	    -15.40164587	    -13.50909427	    101.61633752	      1.77353966	    -10.81582510	     14.73458028	     13.73523220	      0.23904493	     44.24997031	      0.77230768	     16.34229255
     16.94666667	      7.45400505	      9.15573869	      9.52787551	      1.96667413	      0.82661532	      0.98324775	      1.43381715	    -16.26870708	    -12.63553092	    103.89254221	      1.81326693	    -10.24039195	     13.42408015	     14.03308112	      0.77082817	     45.16655225	      0.78830505	     18.29552425
     16.95333333	      7.17541758	      9.29304839	      9.50069082	      1.96425030	      0.82486212	      0.98324885	      4.93640902	    -16.84490606	    -11.39866658	    105.81541989	      1.84682748	     -9.92414913	     12.35969283	     14.09147997	      1.13044078	     45.81597785	      0.79963966	     19.91430080
     16.96000000	      6.96687941	      9.35955139	      9.43121058	      1.96190057	      0.82386825	      0.98337788	      8.39194830	    -17.21162842	    -10.14499440	    107.25901696	      1.87202300	     -9.55959538	     11.05737570	     14.00346838	      1.45503372	     46.14202838	      0.80533032	     21.18437675
     16.96666667	      7.06451292	      9.49539571	      9.18338200	      1.95972661	      0.82392855	      0.98367519	     11.51176029	    -17.49049143	     -8.80320710	    108.19039534	      1.88827862	     -9.25921586	      9.16119688	     13.88179160	      1.66670737	     45.96933185	      0.80231620	     22.08818799
     16.97333333	      7.13473486	      9.52631550	      8.91072431	      1.95779001	      0.82461960	      0.98398250	     14.58587548	    -17.53002818	     -7.51861062	    108.63310701	      1.89600539	     -8.96063604	      7.11736084	     13.62530168	      1.85140782	     45.45711769	      0.79337637	     22.69029156
     16.98000000	      7.21248835	      9.45920739	      8.65626082	      1.95602610	      0.82592041	      0.98414777	     17.51333588	    -17.38613347	     -6.37945650	    108.58853501	      1.89522747	     -8.66534342	      4.90457491	     13.26792728	      2.04965607	     44.61706203	      0.77871463	     22.96152788
     16.98666667	      7.29235676	      9.32843866	      8.41914961	      1.95452727	      0.82779779	      0.98418039	     20.23204300	    -17.11399074	     -5.40685869	    108.06943027	      1.88616738	     -8.32946912	      2.51271617	     12.84788034	      2.25648954	     43.43460340	      0.75807684	     22.91524491
     16.99333333	      7.31880090	      9.10042017	      8.26326172	      1.95330609	      0.83012332	      0.98398095	     22.74611280	    -16.74741697	     -4.68552234	    107.08238980	      1.86894027	     -8.00986580	      0.03975050	     12.35396027	      2.54553771	     41.97432692	      0.73259021	     22.55076028
     17.00000000	      7.67074512	      8.86763356	      8.16137852	      1.95239684	      0.83321881	      0.98347450	     24.54036332	    -16.39884036	     -4.26815426	    105.62012404	      1.84341892	     -7.47387716	     -2.98844763	     11.82098513	      2.94046625	     40.11208998	      0.70008804	     21.83563482
     17.00666667	      7.81149404	      8.50593000	      8.22089831	      1.95178047	      0.83645997	      0.98262962	     26.26757287	    -16.05074112	     -4.17499683	    103.76317966	      1.81100913	     -7.00711721	     -5.83587418	     11.17392206	      3.42196478	     38.10047748	      0.66497878	     20.79240838
     17.01333333	      7.02088517	      7.82176749	      8.70394125	      1.95146463	      0.83900319	      0.98129369	     28.71193921	    -15.62899683	     -4.52693884	    101.58506666	      1.77299388	     -6.49700263	     -7.46443185	     10.26897852	      4.02743005	     36.41781200	      0.63561073	     19.51399457
     17.02000000	      8.03744179	      7.45851636	      8.84504512	      1.95152949	      0.84374632	      0.97997418	     28.72595274	    -15.45123298	     -5.11231628	     98.83724153	      1.72503529	     -5.95538055	    -11.54370038	      9.43004171	      4.70306699	     33.69145709	      0.58802686	     17.66736645
     17.02666667	      7.91860093	      6.84902156	      9.30693203	      1.95188943	      0.84740324	      0.97831841	     29.80013239	    -15.27097109	     -5.93997967	     95.89892760	      1.67375204	     -5.45068320	    -14.09320923	      8.41990247	      5.29814947	     31.40441432	      0.54811043	     15.55901107
     17.03333333	      7.63300772	      6.14670456	      9.77609417	      1.95256024	      0.85098128	      0.97659782	     30.84573761	    -15.06271266	     -6.91923519	     92.66662108	      1.61733764	     -5.04460527	    -16.37694662	      7.30869617	      5.76888741	     29.11627338	      0.50817484	     13.09499214
     17.04000000	      7.40914807	      5.35546801	     10.30384649	      1.95350620	      0.85466891	      0.97484833	     31.54692767	    -14.83023677	     -8.17092396	     89.10496626	      1.55517504	     -4.69508483	    -18.60344995	      6.03005468	      6.13108183	     26.87773076	      0.46910490	     10.30086241
     17.04666667	      6.98716573	      4.47692737	     10.83352087	      1.95470966	      0.85814963	      0.97315572	     32.28459452	    -14.54591563	     -9.55262718	     85.28065483	      1.48842822	     -4.49209826	    -20.45188963	      4.67665570	      6.32918233	     24.77937435	      0.43248167	      7.29028472
     17.05333333	      6.44750250	      3.55755836	     11.17424281	      1.95614348	      0.86140616	      0.97174218	     33.05127703	    -14.06576511	    -10.80077404	     81.22329020	      1.41761384	     -4.41491581	    -22.02816703	      3.35892027	      6.20961815	     22.79564428	      0.39785905	      3.99699996
     17.06000000	      5.77935267	      2.58423689	     11.34551083	      1.95775878	      0.86440769	      0.97071772	     33.85739487	    -13.36225628	    -11.92831259	     76.93320915	      1.34273780	     -4.47255663	    -23.30317897	      2.06068192	      5.75507512	     20.99250663	      0.36638836	      0.57631973
     17.06666667	      5.03616497	      1.62543156	     11.30343030	      1.95946949	      0.86717486	      0.97014137	     34.66387821	    -12.42247871	    -12.79475720	     72.42693859	      1.26408855	     -4.62830913	    -24.34469027	      0.88659701	      5.01601121	     19.39834067	      0.33856491	     -2.92013309
     17.07333333	      3.73714757	      0.68866786	     11.01551376	      1.96129197	      0.86913814	      0.97010989	     36.05344287	    -11.26784168	    -13.20824334	     67.78481333	      1.18306818	     -4.91398923	    -24.54418184	     -0.05638098	      3.95556759	     18.26514133	      0.31878685	     -6.30551242
     17.08000000	      3.25142810	     -0.17964921	     10.40676273	      1.96304593	      0.87162268	      0.97059794	     36.40905413	     -9.64499386	    -13.22981148	     62.86428631	      1.09718878	     -5.10367082	    -25.61420289	     -0.94953974	      2.41693718	     17.12298090	      0.29885239	     -9.70715894
